<svg width="1200" height="400" viewBox="0 0 1200 400" fill="none" xmlns="http://www.w3.org/2000/svg">
<rect width="1200" height="400" fill="#272727"/>
<path d="M616.795 56.8286V66.0234C542.791 66.0234 482.819 125.995 482.819 200H473.624C471.771 200 470.262 201.51 470.296 203.362C472.08 281.587 535.174 344.715 613.433 346.499C615.286 346.534 616.795 345.024 616.795 343.171V333.977C690.8 333.977 750.772 274.005 750.772 200H759.967C761.82 200 763.329 198.49 763.295 196.638C761.545 118.413 698.417 55.2846 620.158 53.5006C618.305 53.4663 616.795 54.9759 616.795 56.8286Z" fill="#FF788F" stroke="white" stroke-width="2" stroke-miterlimit="10" stroke-linecap="round" stroke-linejoin="round"/>
<path d="M779.523 105.856L776.744 119.408L737.735 125.893V125.858L738.695 95.7351L779.523 105.856Z" fill="#FF788F"/>
<path d="M773.485 135.293L771.392 145.586L741.371 159.618L679.547 139.067L640.64 125.995L726.962 92.8186L738.695 95.7349L662.323 125.687L689.428 133.921L741.749 149.806L773.485 135.293Z" fill="white"/>
<path d="M771.392 145.586L769.367 210.361L741.714 228.82V216.125V194.511V159.756L741.371 159.618L771.392 145.586Z" fill="black"/>
<path d="M741.714 173.239L758.629 164.73" stroke="#FF788F" stroke-width="1.2" stroke-miterlimit="10" stroke-linecap="round" stroke-linejoin="round"/>
<path d="M741.714 194.03L770.328 179.072" stroke="#FF788F" stroke-width="1.2" stroke-miterlimit="10" stroke-linecap="round" stroke-linejoin="round"/>
<path d="M760.516 273.318L639.302 340.564L502.615 248.17L529.753 234.275C533.493 236.196 537.816 236.951 541.967 236.299C543.134 236.951 544.369 237.362 545.639 237.74C548.28 238.495 550.991 238.941 553.735 239.078L571.988 250.4C571.919 250.915 571.851 251.395 571.816 251.909C571.713 254.757 573.051 257.914 575.693 258.977C577.271 259.595 579.055 259.423 580.702 259.046C581.869 258.771 583.035 258.428 584.133 257.948L592.333 263.026L599.675 267.589C600.293 270.196 600.945 272.632 601.597 274.862C601.837 275.686 602.317 276.44 602.935 276.955C602.832 276.886 604.65 282.719 605.542 285.567C605.679 286.013 606.297 286.013 606.434 285.532L608.767 276.921C609.556 276.235 610.105 275.24 610.277 274.107L669.048 310.544L724.834 280.592L738.387 273.318L633.916 218.493C634.327 214.924 634.567 211.322 634.602 207.719L760.516 273.318Z" fill="white"/>
<path d="M738.695 95.7351L737.7 125.893V125.927L689.393 133.955L662.289 125.721L738.695 95.7351ZM730.324 116.664C730.324 113.782 725.452 111.449 719.448 111.449C713.444 111.449 708.572 113.782 708.572 116.664C708.572 119.546 713.444 121.879 719.448 121.879C725.452 121.879 730.324 119.546 730.324 116.664Z" fill="#FF788F"/>
<path d="M738.524 273.353L724.972 280.626L646.919 270.231L645.684 230.981L631.789 230.707C632.749 226.692 633.504 222.575 633.984 218.458L738.524 273.353ZM679.341 253.659C679.341 249.474 674.229 246.043 667.95 246.043C661.672 246.043 656.56 249.439 656.56 253.659C656.56 257.879 661.672 261.242 667.95 261.242C674.229 261.242 679.341 257.845 679.341 253.659Z" fill="#FF788F"/>
<path d="M609.934 136.94C626.299 156.496 635.013 182.228 634.636 207.72C634.567 211.322 634.362 214.925 633.95 218.493C633.469 222.61 632.749 226.693 631.754 230.741C630.862 234.481 629.73 238.152 628.392 241.788C627.019 245.494 625.304 249.268 622.148 251.635C619.163 253.865 614.531 254.243 611.889 251.738C612.095 243.607 612.061 234.652 611.855 225.286C612.678 223.913 613.124 222.301 613.261 220.688C613.467 218.15 612.918 215.611 612.335 213.14C612.026 211.768 611.683 210.396 611.34 209.058C611.306 208.269 611.272 207.445 611.237 206.656C611.1 202.916 610.928 199.108 610.723 195.334C610.071 182.537 609.247 169.602 608.321 157.285H608.424L610.105 153.614C610.826 152.07 611.1 150.389 610.963 148.708L609.934 136.94Z" fill="#FF788F"/>
<path d="M634.636 207.72C634.568 211.322 634.362 214.925 633.95 218.493C633.47 222.61 632.749 226.693 631.754 230.741C630.862 234.481 629.73 238.152 628.392 241.788C627.02 245.494 625.304 249.268 622.148 251.635C620.089 253.145 617.276 253.797 614.874 253.282C615.801 252.973 616.693 252.527 617.447 251.944C620.604 249.611 622.319 245.803 623.692 242.097C625.03 238.495 626.162 234.789 627.054 231.05C628.015 227.036 628.769 222.919 629.25 218.801C629.661 215.233 629.901 211.631 629.936 208.028C630.245 185.453 623.486 162.672 610.551 144.179L609.934 136.94C626.299 156.496 634.979 182.228 634.636 207.72Z" fill="white"/>
<path d="M548.932 221.066L548.898 220.997C544.06 219.591 538.914 219.076 533.905 219.522L533.836 218.939C530.474 212.797 527.077 210.087 523.303 207.377C522.995 207.171 522.686 206.931 522.343 206.725C499.527 192.418 481.652 177.596 467.997 164.182C476.677 129.735 498.326 98.617 527.695 78.5806C545.81 91.9268 566.498 104.69 582.315 115.154C582.864 124.246 583.584 134.916 584.442 146.409C596.107 165.176 604.993 185.693 610.654 207.068C610.894 207.96 611.134 208.886 611.375 209.812C611.718 211.185 612.061 212.523 612.369 213.895C612.953 216.365 613.467 218.904 613.296 221.443C613.159 223.056 612.713 224.668 611.889 226.041C611.409 226.83 610.791 227.55 610.036 228.099C607.635 229.952 604.17 229.952 601.356 228.854C598.509 227.756 596.176 225.732 593.98 223.639C593.259 222.953 592.539 222.232 591.818 221.512C590.686 220.38 589.554 219.213 588.456 218.047C586.535 215.988 584.682 213.827 582.864 211.665C582.486 215.062 582.006 218.424 581.32 221.786C580.599 225.389 579.742 228.923 578.678 232.422C571.61 237.706 562.621 240.279 553.804 239.833C551.059 239.696 548.349 239.25 545.707 238.495C544.438 238.117 543.168 237.706 542.036 237.054C541.624 236.848 541.213 236.573 540.835 236.299C539.394 235.235 538.262 233.657 538.091 231.873C538.056 231.53 538.056 231.187 538.091 230.844C538.193 229.54 538.777 228.271 539.566 227.207C540.561 225.869 541.933 224.84 543.305 223.913C544.987 222.747 546.908 221.786 548.932 221.066Z" fill="#FF788F"/>
<path d="M613.227 221.443C613.09 223.056 612.644 224.668 611.821 226.041C611.34 226.83 610.723 227.55 609.968 228.099C608.733 229.025 607.223 229.506 605.679 229.574C614.771 206.141 589.588 155.295 588.902 153.957C588.902 153.957 588.902 153.957 588.902 153.923C598.372 170.597 605.714 188.472 610.62 206.999C610.86 207.891 611.1 208.817 611.34 209.744C611.683 211.116 612.026 212.454 612.335 213.827C612.884 216.365 613.433 218.904 613.227 221.443Z" fill="white"/>
<path d="M608.904 276.955C608.115 277.641 607.086 278.053 605.988 278.053C604.89 278.053 603.861 277.641 603.072 276.955C602.454 276.406 601.974 275.686 601.734 274.862C601.082 272.598 600.43 270.162 599.812 267.589C599.504 266.388 599.229 265.153 598.955 263.883C597.857 259.012 596.828 253.694 595.833 248.033C594.357 239.593 593.019 230.364 591.784 220.757C592.505 221.478 593.225 222.198 593.946 222.884C596.141 224.977 598.509 227.036 601.322 228.099C604.17 229.197 607.601 229.163 610.002 227.344C610.757 226.761 611.375 226.075 611.855 225.286C612.061 234.652 612.095 243.573 611.889 251.738C611.752 256.644 611.546 261.276 611.272 265.53C611.066 268.618 610.791 271.5 610.448 274.176C610.277 275.274 609.728 276.269 608.904 276.955Z" fill="black"/>
<path d="M611.855 251.704C611.718 256.61 611.512 261.242 611.237 265.496C611.031 268.584 610.757 271.466 610.414 274.142C610.277 275.274 609.728 276.269 608.904 276.955C608.115 277.641 607.086 278.053 605.988 278.053C605.37 278.053 604.753 277.916 604.17 277.676C604.444 277.538 604.684 277.367 604.924 277.161C605.714 276.475 606.263 275.48 606.434 274.348C606.743 271.672 607.017 268.79 607.257 265.702C607.566 261.447 607.772 256.816 607.875 251.91C608.047 244.636 608.047 236.711 607.909 228.442C608.63 228.202 609.35 227.859 609.968 227.379C610.723 226.795 611.34 226.109 611.821 225.32C612.026 234.618 612.061 243.572 611.855 251.704Z" fill="white"/>
<path d="M611.237 206.587L610.62 206.279C604.959 184.904 596.107 164.387 584.408 145.62C583.55 134.127 582.864 123.491 582.281 114.365C581.766 105.856 581.354 98.7199 581.08 93.5049C581.08 93.2991 581.045 93.1275 581.045 92.9217C581.045 90.0397 582.212 87.3979 584.099 85.4423C585.746 83.7612 587.942 82.629 590.446 82.3202C593.294 81.9771 596.038 82.8005 598.166 84.3787C600.43 86.0942 602.043 88.7017 602.351 91.7552C603.346 100.847 604.822 115.497 606.297 132.892C606.949 140.543 607.601 148.742 608.252 157.217C609.179 169.534 610.002 182.468 610.654 195.265C610.929 199.074 611.1 202.848 611.237 206.587Z" fill="black"/>
<path d="M611.237 206.587L610.62 206.278C609.282 201.201 607.738 196.157 606.022 191.183C605.405 179.929 604.684 168.676 603.861 157.868C603.243 149.394 602.557 141.229 601.905 133.543C600.396 116.149 598.955 101.499 597.96 92.4069C597.651 89.3534 596.039 86.7459 593.774 85.0305C592.162 83.8297 590.206 83.0406 588.147 82.9033C588.902 82.6289 589.691 82.4573 590.515 82.3544C593.362 82.0113 596.107 82.8347 598.234 84.4129C600.499 86.1284 602.111 88.7359 602.42 91.7894C603.415 100.881 604.89 115.531 606.366 132.926C607.017 140.577 607.669 148.777 608.321 157.251C609.247 169.568 610.071 182.502 610.723 195.3C610.929 199.074 611.1 202.848 611.237 206.587Z" fill="white"/>
<path d="M608.904 276.955L606.571 285.567C606.434 286.013 605.817 286.047 605.679 285.601C604.787 282.753 602.969 276.886 603.072 276.989C603.861 277.676 604.89 278.087 605.988 278.087C607.12 278.053 608.115 277.641 608.904 276.955Z" fill="white"/>
<path d="M598.337 84.2758L598.234 84.413C596.107 82.8005 593.397 81.9771 590.515 82.3545C588.01 82.6633 585.814 83.7955 584.168 85.4766L584.099 85.3737C583.824 80.6047 583.584 76.5563 583.413 73.5028C583.413 73.3655 583.413 73.2626 583.413 73.1597C583.413 69.6945 585.986 66.7439 589.485 66.3322C593.294 65.8862 596.725 68.5966 597.136 72.4049C597.445 75.4927 597.891 79.5412 598.337 84.2758Z" fill="white"/>
<path d="M587.667 73.7773C587.358 76.8652 587.393 79.953 587.77 83.0408C586.398 83.5897 585.197 84.4131 584.202 85.4424L584.133 85.3395C583.859 80.5705 583.619 76.5221 583.447 73.4686C583.447 73.3313 583.447 73.2284 583.447 73.1255C583.447 69.6603 586.02 66.7097 589.52 66.298C589.657 66.2637 589.794 66.2637 589.931 66.2637C589.52 66.9155 589.177 67.6017 588.902 68.3222C588.147 70.072 587.873 71.9247 587.667 73.7773Z" fill="#FF788F"/>
<path d="M578.644 231.633C579.673 228.133 580.565 224.565 581.286 220.997C581.938 217.635 582.452 214.273 582.83 210.876C584.648 213.072 586.501 215.199 588.422 217.257C589.52 218.424 590.618 219.59 591.784 220.723C593.019 230.329 594.357 239.558 595.833 247.998C593.191 252.458 589.039 255.958 584.236 257.879C583.104 258.325 581.972 258.703 580.805 258.977C579.158 259.355 577.374 259.526 575.796 258.909C573.154 257.845 571.816 254.723 571.919 251.841C571.954 251.326 571.988 250.846 572.091 250.331C572.468 248.033 573.463 245.837 574.39 243.675C576.002 239.764 577.443 235.75 578.644 231.633Z" fill="#FF788F"/>
<path d="M595.798 248.033C593.156 252.493 589.005 255.992 584.202 257.914C583.07 258.36 581.937 258.737 580.771 259.012C579.124 259.389 577.34 259.561 575.762 258.943C574.63 258.497 573.738 257.639 573.086 256.61C573.497 256.953 573.978 257.228 574.492 257.433C576.208 258.12 578.129 257.914 579.913 257.502C581.183 257.228 582.452 256.816 583.653 256.336C588.456 254.414 592.676 250.983 595.558 246.66C595.661 247.106 595.73 247.552 595.798 248.033Z" fill="white"/>
<path d="M505.703 59.7449C512.53 66.0921 521.176 72.9882 527.695 77.7914C498.326 97.8622 476.677 128.946 467.963 163.427C451.255 146.993 440.859 132.652 435.472 123.766C433.86 121.124 433.551 117.864 434.649 114.948C449.573 75.4241 481.275 60.0194 494.004 55.2504C496.92 54.1525 499.15 53.3291 502.272 56.3826C503.439 57.5148 504.536 58.647 505.703 59.7449Z" fill="black"/>
<path d="M591.75 220.757C592.985 230.364 594.323 239.593 595.798 248.033C596.793 253.694 597.822 259.012 598.92 263.883C599.195 265.153 599.504 266.388 599.778 267.589C600.396 270.196 601.047 272.632 601.699 274.862C601.94 275.686 602.42 276.441 603.037 276.955C603.827 277.641 604.856 278.053 605.954 278.053C607.052 278.053 608.081 277.641 608.87 276.955C609.659 276.269 610.208 275.274 610.38 274.142C610.688 271.466 610.963 268.584 611.203 265.496C611.512 261.242 611.718 256.61 611.821 251.704C612.026 243.573 611.992 234.618 611.786 225.252" stroke="black" stroke-width="1.2" stroke-miterlimit="10" stroke-linecap="round" stroke-linejoin="round"/>
<path d="M611.34 209.023C611.306 208.2 611.272 207.411 611.237 206.622C611.1 202.882 610.929 199.074 610.723 195.3C609.625 173.719 608.012 151.727 606.4 132.96C604.89 115.566 603.449 100.916 602.454 91.8236C601.802 85.9225 596.45 81.6682 590.549 82.3544C585.162 83.0062 581.148 87.5693 581.148 92.9558C581.148 93.1274 581.148 93.3332 581.183 93.5391C581.457 98.7541 581.834 105.89 582.383 114.399C582.932 123.491 583.653 134.161 584.511 145.655" stroke="black" stroke-width="1.2" stroke-miterlimit="10" stroke-linecap="round" stroke-linejoin="round"/>
<path d="M584.099 85.3737C583.79 80.6047 583.584 76.5563 583.413 73.5028C583.413 73.3655 583.413 73.2626 583.413 73.1597C583.413 69.6945 585.986 66.7439 589.451 66.3322C593.259 65.8862 596.69 68.5966 597.102 72.4049C597.445 75.4927 597.857 79.5412 598.337 84.2758" stroke="black" stroke-width="1.2" stroke-miterlimit="10" stroke-linecap="round" stroke-linejoin="round"/>
<path d="M634.636 207.719L759.452 272.769C759.898 273.009 759.933 273.661 759.452 273.902L639.679 340.392C639.474 340.495 639.199 340.495 638.993 340.358L503.507 248.753C503.095 248.479 503.13 247.861 503.576 247.655L529.753 234.24" stroke="black" stroke-width="1.2" stroke-miterlimit="10" stroke-linecap="round" stroke-linejoin="round"/>
<path d="M584.236 257.914L592.436 262.991L599.778 267.554" stroke="black" stroke-width="1.2" stroke-miterlimit="10" stroke-linecap="round" stroke-linejoin="round"/>
<path d="M610.414 274.142L669.185 310.612L724.937 280.626L738.524 273.353L633.916 218.493" stroke="black" stroke-width="1.2" stroke-miterlimit="10" stroke-linecap="round" stroke-linejoin="round"/>
<path d="M572.056 250.366L553.804 239.044" stroke="black" stroke-width="1.2" stroke-miterlimit="10" stroke-linecap="round" stroke-linejoin="round"/>
<path d="M602.42 91.7896C604.89 94.2598 606.434 97.5192 606.777 100.984L610.894 148.674C611.031 150.355 610.757 152.036 610.037 153.58L608.355 157.251" stroke="black" stroke-width="1.2" stroke-miterlimit="10" stroke-linecap="round" stroke-linejoin="round"/>
<path d="M724.937 280.626L646.884 270.23L611.203 265.496" stroke="black" stroke-width="1.2" stroke-miterlimit="10" stroke-linecap="round" stroke-linejoin="round"/>
<path d="M598.92 263.884L592.436 262.991" stroke="black" stroke-width="1.2" stroke-miterlimit="10" stroke-linecap="round" stroke-linejoin="round"/>
<path d="M646.884 270.265L645.649 231.015L631.754 230.741" stroke="black" stroke-width="1.2" stroke-miterlimit="10" stroke-linecap="round" stroke-linejoin="round"/>
<path d="M667.95 261.242C674.241 261.242 679.341 257.832 679.341 253.625C679.341 249.419 674.241 246.009 667.95 246.009C661.659 246.009 656.56 249.419 656.56 253.625C656.56 257.832 661.659 261.242 667.95 261.242Z" fill="white"/>
<path d="M530.886 258.291L533.356 243.469L555.211 246.043" stroke="black" stroke-width="1.2" stroke-miterlimit="10" stroke-linecap="round" stroke-linejoin="round"/>
<path d="M741.714 228.819L769.368 210.361L771.392 145.586L741.131 159.755L640.606 125.995L726.962 92.8186L779.523 105.856L771.392 145.586" stroke="black" stroke-width="1.2" stroke-miterlimit="10" stroke-linecap="round" stroke-linejoin="round"/>
<path d="M738.695 95.7351L662.323 125.687L741.749 149.806L773.485 135.293" stroke="black" stroke-width="1.2" stroke-miterlimit="10" stroke-linecap="round" stroke-linejoin="round"/>
<path d="M741.715 159.756V228.82L647.399 188.404V178.694L643.557 174.852L647.399 173.548V159.653L644.551 156.016L648.463 154.884V141.846L645.718 127.814" stroke="black" stroke-width="1.2" stroke-miterlimit="10" stroke-linecap="round" stroke-linejoin="round"/>
<path d="M644.551 156.016L741.714 194.511L647.399 159.653" fill="black"/>
<path d="M644.551 156.016L741.714 194.511L647.399 159.653" stroke="black" stroke-width="1.2" stroke-miterlimit="10" stroke-linecap="round" stroke-linejoin="round"/>
<path d="M643.557 174.852L741.715 216.125L647.399 178.694" fill="black"/>
<path d="M643.557 174.852L741.715 216.125L647.399 178.694" stroke="black" stroke-width="1.2" stroke-miterlimit="10" stroke-linecap="round" stroke-linejoin="round"/>
<path d="M708.606 162.089L741.715 173.239" stroke="black" stroke-width="1.2" stroke-miterlimit="10" stroke-linecap="round" stroke-linejoin="round"/>
<path d="M648.463 141.846L700.063 159.207" stroke="black" stroke-width="1.2" stroke-miterlimit="10" stroke-linecap="round" stroke-linejoin="round"/>
<path d="M646.267 130.559L741.714 159.756L645.718 127.814L646.267 130.559Z" fill="black"/>
<path d="M542.859 258.497L628.598 315.004" stroke="black" stroke-width="1.2" stroke-miterlimit="10" stroke-linecap="round" stroke-linejoin="round"/>
<path d="M581.114 269.544L605.988 285.91" stroke="black" stroke-width="1.2" stroke-miterlimit="10" stroke-linecap="round" stroke-linejoin="round"/>
<path d="M553.838 251.566L574.184 264.981" stroke="black" stroke-width="1.2" stroke-miterlimit="10" stroke-linecap="round" stroke-linejoin="round"/>
<path d="M603.072 276.955C602.969 276.886 604.787 282.719 605.679 285.567C605.817 286.013 606.434 286.013 606.571 285.532L608.904 276.921" stroke="black" stroke-width="1.2" stroke-miterlimit="10" stroke-linecap="round" stroke-linejoin="round"/>
<path d="M576.722 134.024C579.399 137.798 582.006 141.675 584.442 145.62C596.107 164.387 604.993 184.904 610.654 206.278C610.894 207.17 611.134 208.097 611.375 209.023C611.718 210.396 612.061 211.734 612.37 213.106C612.953 215.576 613.467 218.115 613.296 220.654C613.159 222.266 612.713 223.879 611.889 225.251C611.409 226.04 610.791 226.761 610.037 227.31C607.635 229.163 604.17 229.163 601.356 228.065C598.509 226.967 596.176 224.943 593.98 222.85C593.259 222.164 592.539 221.443 591.818 220.723C590.686 219.59 589.554 218.424 588.456 217.257C586.535 215.199 584.682 213.037 582.864 210.876C582.143 209.984 581.423 209.092 580.702 208.2C572.983 198.49 566.293 187.923 559.808 177.322C534.797 172.553 510.986 161.539 491.122 145.654" stroke="black" stroke-width="1.2" stroke-miterlimit="10" stroke-linecap="round" stroke-linejoin="round"/>
<path d="M533.836 218.15C530.474 212.008 527.077 209.298 523.303 206.622C522.995 206.416 522.686 206.176 522.343 205.97C499.527 191.663 481.652 176.842 467.997 163.427C451.289 146.993 440.893 132.652 435.507 123.766C433.894 121.124 433.585 117.864 434.683 114.982C449.573 75.4241 481.275 59.9851 494.004 55.2504C496.92 54.1525 499.15 53.3291 502.272 56.3826C503.404 57.5148 504.536 58.647 505.703 59.7449C512.53 66.0921 521.176 72.9882 527.695 77.7914C545.81 91.1376 566.498 103.901 582.315 114.365" stroke="black" stroke-width="1.2" stroke-miterlimit="10" stroke-linecap="round" stroke-linejoin="round"/>
<path d="M611.855 251.704C614.497 254.208 619.128 253.831 622.113 251.601C625.27 249.268 626.985 245.459 628.358 241.754C629.696 238.152 630.828 234.446 631.72 230.707C632.68 226.692 633.435 222.575 633.916 218.458C634.327 214.89 634.567 211.288 634.602 207.685C634.979 182.194 626.265 156.462 609.899 136.906C608.767 135.533 607.566 134.195 606.365 132.892" stroke="black" stroke-width="1.2" stroke-miterlimit="10" stroke-linecap="round" stroke-linejoin="round"/>
<path d="M467.997 163.427C476.712 128.946 498.326 97.862 527.729 77.7913" stroke="black" stroke-width="1.2" stroke-miterlimit="10" stroke-linecap="round" stroke-linejoin="round"/>
<path d="M548.898 220.208C542.962 218.458 536.615 218.115 530.508 219.179C528.793 219.488 527.043 219.899 525.534 220.826C524.024 221.752 522.789 223.227 522.549 224.943C522.171 227.413 523.784 229.746 525.636 231.427C529.994 235.373 536.169 237.191 541.968 236.265" stroke="black" stroke-width="1.2" stroke-miterlimit="10" stroke-linecap="round" stroke-linejoin="round"/>
<path d="M578.678 231.633L578.644 231.667C571.576 236.951 562.587 239.524 553.77 239.078C551.025 238.941 548.315 238.495 545.673 237.74C544.403 237.363 543.134 236.951 541.967 236.299C541.556 236.093 541.144 235.819 540.767 235.544C539.326 234.481 538.193 232.902 538.022 231.118C537.988 230.775 537.988 230.432 538.022 230.089C538.125 228.785 538.708 227.516 539.497 226.452C540.492 225.114 541.864 224.085 543.237 223.159C548.452 219.693 555.245 218.218 561.901 217.841C564.92 217.669 567.939 217.704 570.753 217.909" stroke="black" stroke-width="1.2" stroke-miterlimit="10" stroke-linecap="round" stroke-linejoin="round"/>
<path d="M550.991 200.72C554.284 205.97 555.794 212.317 555.279 218.458" stroke="black" stroke-width="1.2" stroke-miterlimit="10" stroke-linecap="round" stroke-linejoin="round"/>
<path d="M595.798 248.032C593.157 252.493 589.005 255.992 584.202 257.913C583.07 258.359 581.938 258.737 580.771 259.011C579.124 259.389 577.34 259.56 575.762 258.943C573.12 257.879 571.782 254.757 571.885 251.875C571.919 251.36 571.954 250.88 572.057 250.366C572.434 248.067 573.429 245.871 574.355 243.71C576.002 239.764 577.443 235.75 578.678 231.667C579.707 228.168 580.599 224.599 581.32 221.031C581.972 217.669 582.486 214.307 582.864 210.91" stroke="black" stroke-width="1.2" stroke-miterlimit="10" stroke-linecap="round" stroke-linejoin="round"/>
<path d="M689.427 133.921L776.744 119.408" stroke="black" stroke-width="1.2" stroke-miterlimit="10" stroke-linecap="round" stroke-linejoin="round"/>
<path d="M737.083 95.7351L736.088 125.858" stroke="black" stroke-width="1.2" stroke-miterlimit="10" stroke-linecap="round" stroke-linejoin="round"/>
<path d="M719.482 121.878C725.489 121.878 730.358 119.544 730.358 116.663C730.358 113.783 725.489 111.448 719.482 111.448C713.476 111.448 708.606 113.783 708.606 116.663C708.606 119.544 713.476 121.878 719.482 121.878Z" fill="white"/>
<path d="M648.463 154.884L686.752 169.396" stroke="black" stroke-width="1.2" stroke-miterlimit="10" stroke-linecap="round" stroke-linejoin="round"/>
<path d="M591.201 157.285C596.827 156.05 602.523 156.085 608.149 157.32" stroke="black" stroke-width="1.2" stroke-miterlimit="10" stroke-linecap="round" stroke-linejoin="round"/>
<path d="M780.655 71.6843V246.626H742.435C747.822 232.113 750.772 216.4 750.772 200H759.967C761.82 200 763.329 198.49 763.295 196.638C762.3 151.83 741.166 111.997 708.606 85.7853V71.6843H780.655Z" fill="#FF788F"/>
<path d="M741.783 248.444C747.616 233.417 750.806 217.086 750.806 200.034H760.001C761.854 200.034 763.363 198.525 763.329 196.672C762.025 139.376 727.854 90.2113 678.929 67.2585" stroke="white" stroke-width="1.2" stroke-miterlimit="10"/>
<path d="M616.795 66.0234V56.8286C616.795 54.9759 618.305 53.4663 620.158 53.5006C698.417 55.2846 761.545 118.413 763.295 196.638C763.329 198.49 761.82 200 759.967 200H750.772C750.772 218.442 747.048 236.012 740.31 252" stroke="white" stroke-width="2" stroke-miterlimit="10" stroke-linecap="round" stroke-linejoin="round"/>
</svg>
