<svg width="368" height="298" viewBox="0 0 368 298" fill="none" xmlns="http://www.w3.org/2000/svg">
<path d="M200.795 5.82855V15.0234C126.791 15.0234 66.8188 74.9955 66.8188 149H57.624C55.7713 149 54.2617 150.51 54.296 152.362C56.0801 230.587 119.174 293.715 197.433 295.499C199.286 295.534 200.795 294.024 200.795 292.171V282.977C274.8 282.977 334.772 223.005 334.772 149H343.967C345.82 149 347.329 147.49 347.295 145.638C345.545 67.4132 282.417 4.28464 204.158 2.50057C202.305 2.46626 200.795 3.97586 200.795 5.82855Z" fill="#FF788F" stroke="white" stroke-width="2" stroke-miterlimit="10" stroke-linecap="round" stroke-linejoin="round"/>
<path d="M363.523 54.8563L360.744 68.4083L321.735 74.8927V74.8584L322.695 44.7351L363.523 54.8563Z" fill="#FF788F"/>
<path d="M357.485 84.2931L355.392 94.5858L325.371 108.618L263.547 88.0671L224.64 74.9954L310.962 41.8186L322.695 44.7349L246.323 74.6866L273.428 82.9208L325.749 98.8059L357.485 84.2931Z" fill="white"/>
<path d="M355.392 94.5859L353.367 159.361L325.714 177.82V165.125V143.511V108.756L325.371 108.618L355.392 94.5859Z" fill="black"/>
<path d="M325.714 122.239L342.629 113.73" stroke="#FF788F" stroke-width="1.2" stroke-miterlimit="10" stroke-linecap="round" stroke-linejoin="round"/>
<path d="M325.714 143.03L354.328 128.072" stroke="#FF788F" stroke-width="1.2" stroke-miterlimit="10" stroke-linecap="round" stroke-linejoin="round"/>
<path d="M344.516 222.318L223.302 289.564L86.6151 197.17L113.753 183.275C117.493 185.196 121.816 185.951 125.967 185.299C127.134 185.951 128.369 186.362 129.639 186.74C132.28 187.495 134.991 187.941 137.735 188.078L155.988 199.4C155.919 199.915 155.851 200.395 155.816 200.909C155.713 203.757 157.051 206.914 159.693 207.977C161.271 208.595 163.055 208.423 164.702 208.046C165.869 207.771 167.035 207.428 168.133 206.948L176.333 212.026L183.675 216.589C184.293 219.196 184.945 221.632 185.597 223.862C185.837 224.686 186.317 225.44 186.935 225.955C186.832 225.886 188.65 231.719 189.542 234.567C189.679 235.013 190.297 235.013 190.434 234.532L192.767 225.921C193.556 225.235 194.105 224.24 194.277 223.107L253.048 259.544L308.834 229.592L322.387 222.318L217.916 167.493C218.327 163.924 218.567 160.322 218.602 156.719L344.516 222.318Z" fill="white"/>
<path d="M322.695 44.7351L321.7 74.8927V74.927L273.393 82.9553L246.289 74.7212L322.695 44.7351ZM314.324 65.6636C314.324 62.7816 309.452 60.4486 303.448 60.4486C297.444 60.4486 292.572 62.7816 292.572 65.6636C292.572 68.5456 297.444 70.8786 303.448 70.8786C309.452 70.8786 314.324 68.5456 314.324 65.6636Z" fill="#FF788F"/>
<path d="M322.524 222.353L308.972 229.626L230.919 219.231L229.684 179.981L215.789 179.707C216.749 175.692 217.504 171.575 217.984 167.458L322.524 222.353ZM263.341 202.659C263.341 198.474 258.229 195.043 251.95 195.043C245.672 195.043 240.56 198.439 240.56 202.659C240.56 206.879 245.672 210.242 251.95 210.242C258.229 210.242 263.341 206.845 263.341 202.659Z" fill="#FF788F"/>
<path d="M193.934 85.9402C210.299 105.496 219.013 131.228 218.636 156.72C218.567 160.322 218.362 163.925 217.95 167.493C217.469 171.61 216.749 175.693 215.754 179.741C214.862 183.481 213.73 187.152 212.392 190.788C211.019 194.494 209.304 198.268 206.148 200.635C203.163 202.865 198.531 203.243 195.889 200.738C196.095 192.607 196.061 183.652 195.855 174.286C196.678 172.913 197.124 171.301 197.261 169.688C197.467 167.15 196.918 164.611 196.335 162.14C196.026 160.768 195.683 159.396 195.34 158.058C195.306 157.269 195.272 156.445 195.237 155.656C195.1 151.916 194.928 148.108 194.723 144.334C194.071 131.537 193.247 118.602 192.321 106.285H192.424L194.105 102.614C194.826 101.07 195.1 99.3893 194.963 97.7082L193.934 85.9402Z" fill="#FF788F"/>
<path d="M218.636 156.72C218.568 160.322 218.362 163.925 217.95 167.493C217.47 171.61 216.749 175.693 215.754 179.741C214.862 183.481 213.73 187.152 212.392 190.788C211.02 194.494 209.304 198.268 206.148 200.635C204.089 202.145 201.276 202.797 198.874 202.282C199.801 201.973 200.693 201.527 201.447 200.944C204.604 198.611 206.319 194.803 207.692 191.097C209.03 187.495 210.162 183.789 211.054 180.05C212.015 176.036 212.769 171.919 213.25 167.801C213.661 164.233 213.901 160.631 213.936 157.028C214.245 134.453 207.486 111.672 194.551 93.1794L193.934 85.9402C210.299 105.496 218.979 131.228 218.636 156.72Z" fill="white"/>
<path d="M132.932 170.066L132.898 169.997C128.06 168.591 122.914 168.076 117.905 168.522L117.836 167.939C114.474 161.797 111.077 159.087 107.303 156.377C106.995 156.171 106.686 155.931 106.343 155.725C83.5272 141.418 65.6522 126.596 51.9972 113.182C60.6774 78.7353 82.3264 47.617 111.695 27.5806C129.81 40.9268 150.498 53.6897 166.315 64.154C166.864 73.2458 167.584 83.9159 168.442 95.4094C180.107 114.176 188.993 134.693 194.654 156.068C194.894 156.96 195.134 157.886 195.375 158.812C195.718 160.185 196.061 161.523 196.369 162.895C196.953 165.365 197.467 167.904 197.296 170.443C197.159 172.056 196.713 173.668 195.889 175.041C195.409 175.83 194.791 176.55 194.036 177.099C191.635 178.952 188.17 178.952 185.356 177.854C182.509 176.756 180.176 174.732 177.98 172.639C177.259 171.953 176.539 171.232 175.818 170.512C174.686 169.38 173.554 168.213 172.456 167.047C170.535 164.988 168.682 162.827 166.864 160.665C166.486 164.062 166.006 167.424 165.32 170.786C164.599 174.389 163.742 177.923 162.678 181.422C155.61 186.706 146.621 189.279 137.804 188.833C135.059 188.696 132.349 188.25 129.707 187.495C128.438 187.117 127.168 186.706 126.036 186.054C125.624 185.848 125.213 185.573 124.835 185.299C123.394 184.235 122.262 182.657 122.091 180.873C122.056 180.53 122.056 180.187 122.091 179.844C122.193 178.54 122.777 177.271 123.566 176.207C124.561 174.869 125.933 173.84 127.305 172.913C128.987 171.747 130.908 170.786 132.932 170.066Z" fill="#FF788F"/>
<path d="M197.227 170.443C197.09 172.056 196.644 173.668 195.821 175.041C195.34 175.83 194.723 176.55 193.968 177.099C192.733 178.025 191.223 178.506 189.679 178.574C198.771 155.141 173.588 104.295 172.902 102.957C172.902 102.957 172.902 102.957 172.902 102.923C182.372 119.597 189.714 137.472 194.62 155.999C194.86 156.891 195.1 157.817 195.34 158.744C195.683 160.116 196.026 161.454 196.335 162.827C196.884 165.365 197.433 167.904 197.227 170.443Z" fill="white"/>
<path d="M192.904 225.955C192.115 226.641 191.086 227.053 189.988 227.053C188.89 227.053 187.861 226.641 187.072 225.955C186.454 225.406 185.974 224.686 185.734 223.862C185.082 221.598 184.43 219.162 183.812 216.589C183.504 215.388 183.229 214.153 182.955 212.883C181.857 208.012 180.828 202.694 179.833 197.033C178.357 188.593 177.019 179.364 175.784 169.757C176.505 170.478 177.225 171.198 177.946 171.884C180.141 173.977 182.509 176.036 185.322 177.099C188.17 178.197 191.601 178.163 194.002 176.344C194.757 175.761 195.375 175.075 195.855 174.286C196.061 183.652 196.095 192.573 195.889 200.738C195.752 205.644 195.546 210.276 195.272 214.53C195.066 217.618 194.791 220.5 194.448 223.176C194.277 224.274 193.728 225.269 192.904 225.955Z" fill="black"/>
<path d="M195.855 200.704C195.718 205.61 195.512 210.242 195.237 214.496C195.031 217.584 194.757 220.466 194.414 223.142C194.277 224.274 193.728 225.269 192.904 225.955C192.115 226.641 191.086 227.053 189.988 227.053C189.37 227.053 188.753 226.916 188.17 226.676C188.444 226.538 188.684 226.367 188.924 226.161C189.714 225.475 190.263 224.48 190.434 223.348C190.743 220.672 191.017 217.79 191.257 214.702C191.566 210.447 191.772 205.816 191.875 200.91C192.047 193.636 192.047 185.711 191.909 177.442C192.63 177.202 193.35 176.859 193.968 176.379C194.723 175.795 195.34 175.109 195.821 174.32C196.026 183.618 196.061 192.572 195.855 200.704Z" fill="white"/>
<path d="M195.237 155.587L194.62 155.279C188.959 133.904 180.107 113.387 168.408 94.6203C167.55 83.1268 166.864 72.491 166.281 63.3648C165.766 54.8562 165.354 47.7199 165.08 42.5049C165.08 42.2991 165.045 42.1275 165.045 41.9217C165.045 39.0397 166.212 36.3979 168.099 34.4423C169.746 32.7612 171.942 31.629 174.446 31.3202C177.294 30.9771 180.038 31.8005 182.166 33.3787C184.43 35.0942 186.043 37.7017 186.351 40.7552C187.346 49.8471 188.822 64.497 190.297 81.8917C190.949 89.5426 191.601 97.7424 192.252 106.217C193.179 118.534 194.002 131.468 194.654 144.265C194.929 148.074 195.1 151.848 195.237 155.587Z" fill="black"/>
<path d="M195.237 155.587L194.62 155.278C193.282 150.201 191.738 145.157 190.022 140.183C189.405 128.929 188.684 117.676 187.861 106.868C187.243 98.3942 186.557 90.2286 185.905 82.5434C184.396 65.1488 182.955 50.4988 181.96 41.4069C181.651 38.3534 180.039 35.7459 177.774 34.0305C176.162 32.8297 174.206 32.0406 172.147 31.9033C172.902 31.6289 173.691 31.4573 174.515 31.3544C177.362 31.0113 180.107 31.8347 182.234 33.4129C184.499 35.1284 186.111 37.7359 186.42 40.7894C187.415 49.8812 188.89 64.5312 190.366 81.9259C191.017 89.5768 191.669 97.7766 192.321 106.251C193.247 118.568 194.071 131.502 194.723 144.3C194.929 148.074 195.1 151.848 195.237 155.587Z" fill="white"/>
<path d="M192.904 225.955L190.571 234.567C190.434 235.013 189.817 235.047 189.679 234.601C188.787 231.753 186.969 225.886 187.072 225.989C187.861 226.676 188.89 227.087 189.988 227.087C191.12 227.053 192.115 226.641 192.904 225.955Z" fill="white"/>
<path d="M182.337 33.2758L182.234 33.413C180.107 31.8005 177.397 30.9771 174.515 31.3545C172.01 31.6633 169.814 32.7955 168.168 34.4766L168.099 34.3737C167.824 29.6047 167.584 25.5563 167.413 22.5028C167.413 22.3655 167.413 22.2626 167.413 22.1597C167.413 18.6945 169.986 15.7439 173.485 15.3322C177.294 14.8862 180.725 17.5966 181.136 21.4049C181.445 24.4927 181.891 28.5412 182.337 33.2758Z" fill="white"/>
<path d="M171.667 22.7773C171.358 25.8652 171.393 28.953 171.77 32.0408C170.398 32.5897 169.197 33.4131 168.202 34.4424L168.133 34.3395C167.859 29.5705 167.619 25.5221 167.447 22.4686C167.447 22.3313 167.447 22.2284 167.447 22.1255C167.447 18.6603 170.02 15.7097 173.52 15.298C173.657 15.2637 173.794 15.2637 173.931 15.2637C173.52 15.9155 173.177 16.6017 172.902 17.3222C172.147 19.072 171.873 20.9247 171.667 22.7773Z" fill="#FF788F"/>
<path d="M162.644 180.633C163.673 177.133 164.565 173.565 165.286 169.997C165.938 166.635 166.452 163.273 166.83 159.876C168.648 162.072 170.501 164.199 172.422 166.257C173.52 167.424 174.618 168.59 175.784 169.723C177.019 179.329 178.357 188.558 179.833 196.998C177.191 201.458 173.039 204.958 168.236 206.879C167.104 207.325 165.972 207.703 164.805 207.977C163.158 208.355 161.374 208.526 159.796 207.909C157.154 206.845 155.816 203.723 155.919 200.841C155.954 200.326 155.988 199.846 156.091 199.331C156.468 197.033 157.463 194.837 158.39 192.675C160.002 188.764 161.443 184.75 162.644 180.633Z" fill="#FF788F"/>
<path d="M179.798 197.033C177.156 201.493 173.005 204.992 168.202 206.914C167.07 207.36 165.937 207.737 164.771 208.012C163.124 208.389 161.34 208.561 159.762 207.943C158.63 207.497 157.738 206.639 157.086 205.61C157.497 205.953 157.978 206.228 158.492 206.433C160.208 207.12 162.129 206.914 163.913 206.502C165.183 206.228 166.452 205.816 167.653 205.336C172.456 203.414 176.676 199.983 179.558 195.66C179.661 196.106 179.73 196.552 179.798 197.033Z" fill="white"/>
<path d="M89.7029 8.7449C96.5303 15.0921 105.176 21.9882 111.695 26.7914C82.3264 46.8622 60.6774 77.9461 51.963 112.427C35.2545 95.9927 24.8588 81.6515 19.4723 72.7655C17.8598 70.1237 17.551 66.8643 18.6489 63.9481C33.5733 24.4241 65.2749 9.01937 78.0035 4.25042C80.9198 3.15253 83.1498 2.32911 86.272 5.38261C87.4385 6.51481 88.5364 7.64701 89.7029 8.7449Z" fill="black"/>
<path d="M175.75 169.757C176.985 179.364 178.323 188.593 179.798 197.033C180.793 202.694 181.822 208.012 182.92 212.883C183.195 214.153 183.504 215.388 183.778 216.589C184.396 219.196 185.047 221.632 185.699 223.862C185.94 224.686 186.42 225.441 187.037 225.955C187.827 226.641 188.856 227.053 189.954 227.053C191.052 227.053 192.081 226.641 192.87 225.955C193.659 225.269 194.208 224.274 194.38 223.142C194.688 220.466 194.963 217.584 195.203 214.496C195.512 210.242 195.718 205.61 195.821 200.704C196.026 192.573 195.992 183.618 195.786 174.252" stroke="black" stroke-width="1.2" stroke-miterlimit="10" stroke-linecap="round" stroke-linejoin="round"/>
<path d="M195.34 158.023C195.306 157.2 195.272 156.411 195.237 155.622C195.1 151.882 194.929 148.074 194.723 144.3C193.625 122.719 192.012 100.727 190.4 81.9601C188.89 64.5655 187.449 49.9155 186.454 40.8236C185.802 34.9225 180.45 30.6682 174.549 31.3544C169.162 32.0062 165.148 36.5693 165.148 41.9558C165.148 42.1274 165.148 42.3332 165.183 42.5391C165.457 47.7541 165.834 54.8903 166.383 63.399C166.932 72.4908 167.653 83.1609 168.511 94.6545" stroke="black" stroke-width="1.2" stroke-miterlimit="10" stroke-linecap="round" stroke-linejoin="round"/>
<path d="M168.099 34.3737C167.79 29.6047 167.584 25.5563 167.413 22.5028C167.413 22.3655 167.413 22.2626 167.413 22.1597C167.413 18.6945 169.986 15.7439 173.451 15.3322C177.259 14.8862 180.69 17.5966 181.102 21.4049C181.445 24.4927 181.857 28.5412 182.337 33.2758" stroke="black" stroke-width="1.2" stroke-miterlimit="10" stroke-linecap="round" stroke-linejoin="round"/>
<path d="M218.636 156.719L343.452 221.769C343.898 222.009 343.933 222.661 343.452 222.902L223.679 289.392C223.474 289.495 223.199 289.495 222.993 289.358L87.5071 197.753C87.0954 197.479 87.1297 196.861 87.5757 196.655L113.753 183.24" stroke="black" stroke-width="1.2" stroke-miterlimit="10" stroke-linecap="round" stroke-linejoin="round"/>
<path d="M168.236 206.914L176.436 211.991L183.778 216.554" stroke="black" stroke-width="1.2" stroke-miterlimit="10" stroke-linecap="round" stroke-linejoin="round"/>
<path d="M194.414 223.142L253.185 259.612L308.937 229.626L322.524 222.353L217.916 167.493" stroke="black" stroke-width="1.2" stroke-miterlimit="10" stroke-linecap="round" stroke-linejoin="round"/>
<path d="M156.056 199.366L137.804 188.044" stroke="black" stroke-width="1.2" stroke-miterlimit="10" stroke-linecap="round" stroke-linejoin="round"/>
<path d="M186.42 40.7896C188.89 43.2598 190.434 46.5192 190.777 49.9844L194.894 97.6739C195.031 99.355 194.757 101.036 194.037 102.58L192.355 106.251" stroke="black" stroke-width="1.2" stroke-miterlimit="10" stroke-linecap="round" stroke-linejoin="round"/>
<path d="M308.937 229.626L230.884 219.23L195.203 214.496" stroke="black" stroke-width="1.2" stroke-miterlimit="10" stroke-linecap="round" stroke-linejoin="round"/>
<path d="M182.92 212.884L176.436 211.991" stroke="black" stroke-width="1.2" stroke-miterlimit="10" stroke-linecap="round" stroke-linejoin="round"/>
<path d="M230.884 219.265L229.649 180.015L215.754 179.741" stroke="black" stroke-width="1.2" stroke-miterlimit="10" stroke-linecap="round" stroke-linejoin="round"/>
<path d="M251.95 210.242C258.241 210.242 263.341 206.832 263.341 202.625C263.341 198.419 258.241 195.009 251.95 195.009C245.659 195.009 240.56 198.419 240.56 202.625C240.56 206.832 245.659 210.242 251.95 210.242Z" fill="white"/>
<path d="M114.886 207.291L117.356 192.469L139.211 195.043" stroke="black" stroke-width="1.2" stroke-miterlimit="10" stroke-linecap="round" stroke-linejoin="round"/>
<path d="M325.714 177.819L353.368 159.361L355.392 94.5858L325.131 108.755L224.606 74.9954L310.962 41.8186L363.523 54.856L355.392 94.5858" stroke="black" stroke-width="1.2" stroke-miterlimit="10" stroke-linecap="round" stroke-linejoin="round"/>
<path d="M322.695 44.7351L246.323 74.6869L325.749 98.8061L357.485 84.2934" stroke="black" stroke-width="1.2" stroke-miterlimit="10" stroke-linecap="round" stroke-linejoin="round"/>
<path d="M325.715 108.756V177.82L231.399 137.404V127.694L227.557 123.852L231.399 122.548V108.653L228.551 105.016L232.463 103.884V90.8463L229.718 76.814" stroke="black" stroke-width="1.2" stroke-miterlimit="10" stroke-linecap="round" stroke-linejoin="round"/>
<path d="M228.551 105.016L325.714 143.511L231.399 108.653" fill="black"/>
<path d="M228.551 105.016L325.714 143.511L231.399 108.653" stroke="black" stroke-width="1.2" stroke-miterlimit="10" stroke-linecap="round" stroke-linejoin="round"/>
<path d="M227.557 123.852L325.715 165.125L231.399 127.694" fill="black"/>
<path d="M227.557 123.852L325.715 165.125L231.399 127.694" stroke="black" stroke-width="1.2" stroke-miterlimit="10" stroke-linecap="round" stroke-linejoin="round"/>
<path d="M292.606 111.089L325.715 122.239" stroke="black" stroke-width="1.2" stroke-miterlimit="10" stroke-linecap="round" stroke-linejoin="round"/>
<path d="M232.463 90.8464L284.063 108.207" stroke="black" stroke-width="1.2" stroke-miterlimit="10" stroke-linecap="round" stroke-linejoin="round"/>
<path d="M230.267 79.5587L325.714 108.756L229.718 76.814L230.267 79.5587Z" fill="black"/>
<path d="M126.859 207.497L212.598 264.004" stroke="black" stroke-width="1.2" stroke-miterlimit="10" stroke-linecap="round" stroke-linejoin="round"/>
<path d="M165.114 218.544L189.988 234.91" stroke="black" stroke-width="1.2" stroke-miterlimit="10" stroke-linecap="round" stroke-linejoin="round"/>
<path d="M137.838 200.566L158.184 213.981" stroke="black" stroke-width="1.2" stroke-miterlimit="10" stroke-linecap="round" stroke-linejoin="round"/>
<path d="M187.072 225.955C186.969 225.886 188.787 231.719 189.679 234.567C189.817 235.013 190.434 235.013 190.571 234.532L192.904 225.921" stroke="black" stroke-width="1.2" stroke-miterlimit="10" stroke-linecap="round" stroke-linejoin="round"/>
<path d="M160.722 83.0237C163.399 86.7977 166.006 90.6746 168.442 94.6201C180.107 113.387 188.993 133.904 194.654 155.278C194.894 156.17 195.134 157.097 195.375 158.023C195.718 159.396 196.061 160.734 196.37 162.106C196.953 164.576 197.467 167.115 197.296 169.654C197.159 171.266 196.713 172.879 195.889 174.251C195.409 175.04 194.791 175.761 194.037 176.31C191.635 178.163 188.17 178.163 185.356 177.065C182.509 175.967 180.176 173.943 177.98 171.85C177.259 171.164 176.539 170.443 175.818 169.723C174.686 168.59 173.554 167.424 172.456 166.257C170.535 164.199 168.682 162.037 166.864 159.876C166.143 158.984 165.423 158.092 164.702 157.2C156.983 147.49 150.293 136.923 143.808 126.322C118.797 121.553 94.9864 110.539 75.1215 94.6544" stroke="black" stroke-width="1.2" stroke-miterlimit="10" stroke-linecap="round" stroke-linejoin="round"/>
<path d="M117.836 167.15C114.474 161.008 111.077 158.298 107.303 155.622C106.995 155.416 106.686 155.176 106.343 154.97C83.5272 140.663 65.6522 125.842 51.9973 112.427C35.2888 95.9927 24.8931 81.6515 19.5066 72.7655C17.8941 70.1237 17.5853 66.8643 18.6832 63.9824C33.5733 24.4241 65.2748 8.98506 78.0035 4.25042C80.9197 3.15253 83.1498 2.32911 86.2719 5.38261C87.4041 6.51481 88.5363 7.64701 89.7028 8.7449C96.5303 15.0921 105.176 21.9882 111.695 26.7914C129.81 40.1376 150.498 52.9006 166.315 63.3648" stroke="black" stroke-width="1.2" stroke-miterlimit="10" stroke-linecap="round" stroke-linejoin="round"/>
<path d="M195.855 200.704C198.497 203.208 203.128 202.831 206.113 200.601C209.27 198.268 210.985 194.459 212.358 190.754C213.696 187.152 214.828 183.446 215.72 179.707C216.68 175.692 217.435 171.575 217.916 167.458C218.327 163.89 218.567 160.288 218.602 156.685C218.979 131.194 210.265 105.462 193.899 85.9058C192.767 84.5334 191.566 83.1953 190.365 81.8916" stroke="black" stroke-width="1.2" stroke-miterlimit="10" stroke-linecap="round" stroke-linejoin="round"/>
<path d="M51.9972 112.427C60.7117 77.946 82.3264 46.862 111.729 26.7913" stroke="black" stroke-width="1.2" stroke-miterlimit="10" stroke-linecap="round" stroke-linejoin="round"/>
<path d="M132.898 169.208C126.962 167.458 120.615 167.115 114.508 168.179C112.793 168.488 111.043 168.899 109.534 169.826C108.024 170.752 106.789 172.227 106.549 173.943C106.171 176.413 107.784 178.746 109.636 180.427C113.994 184.373 120.169 186.191 125.968 185.265" stroke="black" stroke-width="1.2" stroke-miterlimit="10" stroke-linecap="round" stroke-linejoin="round"/>
<path d="M162.678 180.633L162.644 180.667C155.576 185.951 146.587 188.524 137.77 188.078C135.025 187.941 132.315 187.495 129.673 186.74C128.403 186.363 127.134 185.951 125.967 185.299C125.556 185.093 125.144 184.819 124.767 184.544C123.326 183.481 122.193 181.902 122.022 180.118C121.988 179.775 121.988 179.432 122.022 179.089C122.125 177.785 122.708 176.516 123.497 175.452C124.492 174.114 125.864 173.085 127.237 172.159C132.452 168.693 139.245 167.218 145.901 166.841C148.92 166.669 151.939 166.704 154.753 166.909" stroke="black" stroke-width="1.2" stroke-miterlimit="10" stroke-linecap="round" stroke-linejoin="round"/>
<path d="M134.991 149.72C138.284 154.97 139.794 161.317 139.279 167.458" stroke="black" stroke-width="1.2" stroke-miterlimit="10" stroke-linecap="round" stroke-linejoin="round"/>
<path d="M179.798 197.032C177.157 201.493 173.005 204.992 168.202 206.913C167.07 207.359 165.938 207.737 164.771 208.011C163.124 208.389 161.34 208.56 159.762 207.943C157.12 206.879 155.782 203.757 155.885 200.875C155.919 200.36 155.954 199.88 156.057 199.366C156.434 197.067 157.429 194.871 158.355 192.71C160.002 188.764 161.443 184.75 162.678 180.667C163.707 177.168 164.599 173.599 165.32 170.031C165.972 166.669 166.486 163.307 166.864 159.91" stroke="black" stroke-width="1.2" stroke-miterlimit="10" stroke-linecap="round" stroke-linejoin="round"/>
<path d="M273.427 82.9209L360.744 68.4082" stroke="black" stroke-width="1.2" stroke-miterlimit="10" stroke-linecap="round" stroke-linejoin="round"/>
<path d="M321.083 44.7351L320.088 74.8584" stroke="black" stroke-width="1.2" stroke-miterlimit="10" stroke-linecap="round" stroke-linejoin="round"/>
<path d="M303.482 70.8784C309.489 70.8784 314.358 68.5436 314.358 65.6635C314.358 62.7833 309.489 60.4485 303.482 60.4485C297.476 60.4485 292.606 62.7833 292.606 65.6635C292.606 68.5436 297.476 70.8784 303.482 70.8784Z" fill="white"/>
<path d="M232.463 103.884L270.752 118.396" stroke="black" stroke-width="1.2" stroke-miterlimit="10" stroke-linecap="round" stroke-linejoin="round"/>
<path d="M175.201 106.285C180.827 105.05 186.523 105.085 192.149 106.32" stroke="black" stroke-width="1.2" stroke-miterlimit="10" stroke-linecap="round" stroke-linejoin="round"/>
<path d="M364.655 20.6843V195.626H326.435C331.822 181.113 334.772 165.4 334.772 149H343.967C345.82 149 347.329 147.49 347.295 145.638C346.3 100.83 325.166 60.9974 292.606 34.7853V20.6843H364.655Z" fill="#FF788F"/>
<path d="M325.783 197.444C331.616 182.417 334.806 166.086 334.806 149.034H344.001C345.854 149.034 347.363 147.525 347.329 145.672C346.025 88.3761 311.854 39.2113 262.929 16.2585" stroke="white" stroke-width="1.2" stroke-miterlimit="10"/>
<path d="M200.795 15.0234V5.82855C200.795 3.97586 202.305 2.46626 204.158 2.50057C282.417 4.28464 345.545 67.4132 347.295 145.638C347.329 147.49 345.82 149 343.967 149H334.772C334.772 167.442 331.048 185.012 324.31 201" stroke="white" stroke-width="2" stroke-miterlimit="10" stroke-linecap="round" stroke-linejoin="round"/>
</svg>
