<?xml version="1.0" standalone="no"?>
<!DOCTYPE svg PUBLIC "-//W3C//DTD SVG 20010904//EN"
 "http://www.w3.org/TR/2001/REC-SVG-20010904/DTD/svg10.dtd">
<svg version="1.0" xmlns="http://www.w3.org/2000/svg"
 width="33.000000pt" height="33.000000pt" viewBox="0 0 33.000000 33.000000"
 preserveAspectRatio="xMidYMid meet">

<g transform="translate(0.000000,33.000000) scale(0.100000,-0.100000)"
fill="#000000" stroke="none">
<path d="M0 165 l0 -165 165 0 165 0 0 165 0 165 -165 0 -165 0 0 -165z m260
89 c0 -77 -28 -123 -75 -124 -33 0 -45 -20 -45 -72 l0 -48 -35 0 -35 0 0 59
c0 49 4 65 26 90 14 17 34 31 44 31 42 0 50 10 50 66 l0 54 35 0 35 0 0 -56z"/>
</g>
</svg>
