<svg width="1200" height="444" viewBox="0 0 1200 444" fill="none" xmlns="http://www.w3.org/2000/svg">
<rect width="1200" height="444" fill="white"/>
<rect x="61" y="192" width="300" height="60" rx="8" fill="#D9D9D9"/>
<path d="M400.203 222C400.203 223.74 400.895 225.41 402.125 226.64C403.356 227.871 405.025 228.562 406.766 228.562C408.506 228.562 410.175 227.871 411.406 226.64C412.637 225.41 413.328 223.74 413.328 222C413.328 220.26 412.637 218.59 411.406 217.36C410.175 216.129 408.506 215.438 406.766 215.438C405.025 215.438 403.356 216.129 402.125 217.36C400.895 218.59 400.203 220.26 400.203 222V222ZM432.207 220.488C426.652 208.787 418.256 202.898 407 202.898C395.738 202.898 387.348 208.787 381.793 220.494C381.57 220.966 381.455 221.481 381.455 222.003C381.455 222.525 381.57 223.04 381.793 223.512C387.348 235.213 395.744 241.102 407 241.102C418.262 241.102 426.652 235.213 432.207 223.506C432.658 222.557 432.658 221.455 432.207 220.488V220.488ZM406.766 232.312C401.07 232.312 396.453 227.695 396.453 222C396.453 216.305 401.07 211.688 406.766 211.688C412.461 211.688 417.078 216.305 417.078 222C417.078 227.695 412.461 232.312 406.766 232.312Z" fill="#545454"/>
<path d="M564.456 258C561.832 252.432 559.24 246.64 556.68 240.624C554.12 234.608 551.688 228.656 549.384 222.768C547.08 216.88 544.936 211.248 542.952 205.872C541.032 200.496 539.368 195.696 537.96 191.472H554.472C555.752 195.312 557.128 199.472 558.6 203.952C560.136 208.368 561.672 212.784 563.208 217.2C564.808 221.616 566.344 225.84 567.816 229.872C569.288 233.904 570.664 237.392 571.944 240.336C573.16 237.392 574.504 233.904 575.976 229.872C577.512 225.84 579.048 221.616 580.584 217.2C582.184 212.784 583.72 208.368 585.192 203.952C586.728 199.472 588.136 195.312 589.416 191.472H605.352C603.88 195.696 602.184 200.496 600.264 205.872C598.344 211.248 596.232 216.88 593.928 222.768C591.624 228.656 589.192 234.608 586.632 240.624C584.072 246.64 581.48 252.432 578.856 258H564.456ZM632.105 246.576C634.217 246.576 635.945 246.416 637.289 246.096C638.697 245.712 639.817 245.232 640.649 244.656C641.481 244.016 642.057 243.28 642.377 242.448C642.697 241.616 642.857 240.688 642.857 239.664C642.857 237.488 641.833 235.696 639.785 234.288C637.737 232.816 634.217 231.248 629.225 229.584C627.049 228.816 624.873 227.952 622.697 226.992C620.521 225.968 618.569 224.72 616.841 223.248C615.113 221.712 613.705 219.888 612.617 217.776C611.529 215.6 610.985 212.976 610.985 209.904C610.985 206.832 611.561 204.08 612.713 201.648C613.865 199.152 615.497 197.04 617.609 195.312C619.721 193.584 622.281 192.272 625.289 191.376C628.297 190.416 631.689 189.936 635.465 189.936C639.945 189.936 643.817 190.416 647.081 191.376C650.345 192.336 653.033 193.392 655.145 194.544L650.825 206.352C648.969 205.392 646.889 204.56 644.585 203.856C642.345 203.088 639.625 202.704 636.425 202.704C632.841 202.704 630.249 203.216 628.649 204.24C627.113 205.2 626.345 206.704 626.345 208.752C626.345 209.968 626.633 210.992 627.209 211.824C627.785 212.656 628.585 213.424 629.609 214.128C630.697 214.768 631.913 215.376 633.257 215.952C634.665 216.464 636.201 217.008 637.865 217.584C641.321 218.864 644.329 220.144 646.889 221.424C649.449 222.64 651.561 224.08 653.225 225.744C654.953 227.408 656.233 229.36 657.065 231.6C657.897 233.84 658.313 236.56 658.313 239.76C658.313 245.968 656.137 250.8 651.785 254.256C647.433 257.648 640.873 259.344 632.105 259.344C629.161 259.344 626.505 259.152 624.137 258.768C621.769 258.448 619.657 258.032 617.801 257.52C616.009 257.008 614.441 256.464 613.097 255.888C611.817 255.312 610.729 254.768 609.833 254.256L614.057 242.352C616.041 243.44 618.473 244.432 621.353 245.328C624.297 246.16 627.881 246.576 632.105 246.576Z" fill="black"/>
<rect x="763" y="100" width="300" height="60" rx="8" fill="#D9D9D9"/>
<path d="M1102.2 130C1102.2 131.74 1102.89 133.41 1104.13 134.64C1105.36 135.871 1107.03 136.562 1108.77 136.562C1110.51 136.562 1112.18 135.871 1113.41 134.64C1114.64 133.41 1115.33 131.74 1115.33 130C1115.33 128.26 1114.64 126.59 1113.41 125.36C1112.18 124.129 1110.51 123.438 1108.77 123.438C1107.03 123.438 1105.36 124.129 1104.13 125.36C1102.89 126.59 1102.2 128.26 1102.2 130V130ZM1134.21 128.488C1128.65 116.787 1120.26 110.898 1109 110.898C1097.74 110.898 1089.35 116.787 1083.79 128.494C1083.57 128.966 1083.45 129.481 1083.45 130.003C1083.45 130.525 1083.57 131.04 1083.79 131.512C1089.35 143.213 1097.74 149.102 1109 149.102C1120.26 149.102 1128.65 143.213 1134.21 131.506C1134.66 130.557 1134.66 129.455 1134.21 128.488V128.488ZM1108.77 140.312C1103.07 140.312 1098.45 135.695 1098.45 130C1098.45 124.305 1103.07 119.688 1108.77 119.688C1114.46 119.688 1119.08 124.305 1119.08 130C1119.08 135.695 1114.46 140.312 1108.77 140.312Z" fill="#545454"/>
<rect x="763" y="192" width="300" height="60" rx="8" fill="#D9D9D9"/>
<path d="M1102.2 222C1102.2 223.74 1102.89 225.41 1104.13 226.64C1105.36 227.871 1107.03 228.562 1108.77 228.562C1110.51 228.562 1112.18 227.871 1113.41 226.64C1114.64 225.41 1115.33 223.74 1115.33 222C1115.33 220.26 1114.64 218.59 1113.41 217.36C1112.18 216.129 1110.51 215.438 1108.77 215.438C1107.03 215.438 1105.36 216.129 1104.13 217.36C1102.89 218.59 1102.2 220.26 1102.2 222V222ZM1134.21 220.488C1128.65 208.787 1120.26 202.898 1109 202.898C1097.74 202.898 1089.35 208.787 1083.79 220.494C1083.57 220.966 1083.45 221.481 1083.45 222.003C1083.45 222.525 1083.57 223.04 1083.79 223.512C1089.35 235.213 1097.74 241.102 1109 241.102C1120.26 241.102 1128.65 235.213 1134.21 223.506C1134.66 222.557 1134.66 221.455 1134.21 220.488V220.488ZM1108.77 232.312C1103.07 232.312 1098.45 227.695 1098.45 222C1098.45 216.305 1103.07 211.688 1108.77 211.688C1114.46 211.688 1119.08 216.305 1119.08 222C1119.08 227.695 1114.46 232.312 1108.77 232.312Z" fill="#545454" fill-opacity="0.45"/>
<rect x="763" y="284" width="300" height="60" rx="8" fill="#D9D9D9"/>
<path d="M1102.2 314C1102.2 315.74 1102.89 317.41 1104.13 318.64C1105.36 319.871 1107.03 320.562 1108.77 320.562C1110.51 320.562 1112.18 319.871 1113.41 318.64C1114.64 317.41 1115.33 315.74 1115.33 314C1115.33 312.26 1114.64 310.59 1113.41 309.36C1112.18 308.129 1110.51 307.438 1108.77 307.438C1107.03 307.438 1105.36 308.129 1104.13 309.36C1102.89 310.59 1102.2 312.26 1102.2 314V314ZM1134.21 312.488C1128.65 300.787 1120.26 294.898 1109 294.898C1097.74 294.898 1089.35 300.787 1083.79 312.494C1083.57 312.966 1083.45 313.481 1083.45 314.003C1083.45 314.525 1083.57 315.04 1083.79 315.512C1089.35 327.213 1097.74 333.102 1109 333.102C1120.26 333.102 1128.65 327.213 1134.21 315.506C1134.66 314.557 1134.66 313.455 1134.21 312.488V312.488ZM1108.77 324.312C1103.07 324.312 1098.45 319.695 1098.45 314C1098.45 308.305 1103.07 303.688 1108.77 303.688C1114.46 303.688 1119.08 308.305 1119.08 314C1119.08 319.695 1114.46 324.312 1108.77 324.312Z" fill="#545454" fill-opacity="0.45"/>
</svg>
